:version 1.10
:name ASF
:units
  mass 1
  length 1
  angle deg
:documentation
  ASF file generated by Kaydara
:root
  axis xyz
  order  tx ty tz rx ry rz
  position 0 0 0
  orientation 0 0 0
:bonedata
  begin
    id 1
    name LeftUpLegDummy
    direction 1 -2.30186e-007 -8.31532e-007
    length 2.93387
    axis 0 0 0 xyz
  end
  begin
    id 2
    name LeftUpLeg
    direction -1.82929e-007 -1 -1.48925e-009
    length 17.3336
    axis -3.48766 0.00143442 -0.000521554 xyz
    dof rx ry rz
  end
  begin
    id 3
    name LeftLeg
    direction -1.82929e-007 -1 -5.23717e-011
    length 14.9995
    axis 3.68178 -0.00654042 -0.000282425 xyz
    dof rx ry rz
  end
  begin
    id 4
    name LeftFoot
    direction 8.31532e-007 -4.54534e-011 1
    length 6.74421
    axis 1.87234e-006 4.66016e-005 -5.96866e-006 xyz
    dof rx ry rz
  end
  begin
    id 5
    name LeftToes
    direction 0.00818058 -0.00485161 0.999955
    length 3.85048
    axis 1.06247e-005 4.65869e-005 -5.96999e-006 xyz
    dof rx ry rz
  end
  begin
    id 6
    name SpineDummy
    direction -5.8607e-008 0.943407 -0.331637
    length 5.93572
    axis 0 0 0 xyz
  end
  begin
    id 7
    name Spine
    direction -1.04988e-007 0.999988 0.00495137
    length 10.1015
    axis -0.001389 0.000121417 6.61666e-006 xyz
    dof rx ry rz
  end
  begin
    id 8
    name Spine1
    direction 0 0 0
    length 0
    axis -0.001389 0.00012144 6.56766e-006 xyz
    dof rx ry rz
  end
  begin
    id 9
    name RightShoulderDummy
    direction -0.98348 0.17941 -0.0240696
    length 3.59882
    axis -0.001389 0.00012144 6.56766e-006 xyz
  end
  begin
    id 10
    name RightShoulder
    direction -0.978693 0.204882 0.0135597
    length 2.70001
    axis 0.215806 0.000203631 -0.00679732 xyz
    dof rx ry rz
  end
  begin
    id 11
    name RightArm
    direction -1 3.85509e-006 8.31394e-007
    length 10.2459
    axis -23.2009 -0.134239 -0.964098 xyz
    dof rx ry rz
  end
  begin
    id 12
    name RightForeArm
    direction -1 3.85569e-006 8.3129e-007
    length 8.16799
    axis -9.92322 0.0658061 0.17887 xyz
    dof rx ry rz
  end
  begin
    id 13
    name RightHand
    direction -0.992843 -0.0414604 0.112003
    length 5.28593
    axis -0.00960638 0.00330669 -0.185225 xyz
    dof rx ry rz
  end
  begin
    id 14
    name LeftShoulder1Dummy
    direction 0.983523 0.179172 -0.0240748
    length 3.59866
    axis -0.001389 0.00012144 6.56766e-006 xyz
  end
  begin
    id 15
    name LeftShoulder1
    direction 0.978627 0.205195 0.0135605
    length 2.70019
    axis -0.001389 0.00012144 6.57583e-006 xyz
    dof rx ry rz
  end
  begin
    id 16
    name LeftArm
    direction 1 3.51895e-006 -8.60188e-007
    length 10.2459
    axis -23.1894 0.134785 0.967513 xyz
    dof rx ry rz
  end
  begin
    id 17
    name LeftForeArm
    direction 1 3.51921e-006 -7.32029e-007
    length 8.16799
    axis -9.91835 -0.0656957 -0.177789 xyz
    dof rx ry rz
  end
  begin
    id 18
    name LeftHand
    direction 0.992938 -0.0411636 0.11126
    length 5.32135
    axis -0.00960237 -0.00340661 0.185177 xyz
    dof rx ry rz
  end
  begin
    id 19
    name HEadDummy
    direction 1.01974e-006 0.999861 -0.016675
    length 2.99946
    axis -0.001389 0.00012144 6.56766e-006 xyz
  end
  begin
    id 20
    name HEad
    direction -0.0222689 0.980941 0.193023
    length 5.12695
    axis -0.001389 0.00012144 6.56766e-006 xyz
    dof rx ry rz
  end
  begin
    id 21
    name RightUpLegDummy
    direction -1 2.30186e-007 8.31532e-007
    length 2.93387
    axis 0 0 0 xyz
  end
  begin
    id 22
    name RightUpLeg
    direction -1.82966e-007 -1 1.56832e-007
    length 17.3336
    axis -3.4909 -0.000906625 0.00028951 xyz
    dof rx ry rz
  end
  begin
    id 23
    name RightLeg
    direction -1.82786e-007 -1 -1.80317e-007
    length 14.9995
    axis 3.68513 0.0193739 -0.131021 xyz
    dof rx ry rz
  end
  begin
    id 24
    name RightFoot
    direction 8.31721e-007 -4.63324e-011 1
    length 6.74421
    axis 4.81691e-005 -0.120479 -0.188785 xyz
    dof rx ry rz
  end
  begin
    id 25
    name RightToes
    direction 0.00124746 -0.014064 0.9999
    length 3.85082
    axis 0.000481921 0.542163 -0.142575 xyz
    dof rx ry rz
  end
:hierarchy
  begin
    root LeftUpLegDummy SpineDummy RightUpLegDummy
    LeftUpLegDummy LeftUpLeg
    LeftUpLeg LeftLeg
    LeftLeg LeftFoot
    LeftFoot LeftToes
    SpineDummy Spine
    Spine Spine1
    Spine1 RightShoulderDummy LeftShoulder1Dummy HEadDummy
    RightShoulderDummy RightShoulder
    RightShoulder RightArm
    RightArm RightForeArm
    RightForeArm RightHand
    LeftShoulder1Dummy LeftShoulder1
    LeftShoulder1 LeftArm
    LeftArm LeftForeArm
    LeftForeArm LeftHand
    HEadDummy HEad
    RightUpLegDummy RightUpLeg
    RightUpLeg RightLeg
    RightLeg RightFoot
    RightFoot RightToes
  end

:SAMPLES-PER-SECOND 30
:FULLY-SPECIFIED
:DEGREES
17
root  2.47656 33.9262 0.819624 5.19799 -28.7286 1.02321
LeftUpLeg  -3.55913 19.4873 2.62722
LeftLeg  17.5566 23.1176 5.53734
LeftFoot  -7.38173 -0.211788 -3.2823
LeftToes  -7.04653 8.556e-007 1.17171e-007
Spine  1.28151 -7.68748 6.50281
Spine1  1.7079 -15.4479 12.6131
RightShoulder  0.0897812 2.09951 10.7305
RightArm  -32.5555 -9.816 61.3825
RightForeArm  24.248 19.2566 3.52733
RightHand  1.32584 -13.3632 -10.9064
LeftShoulder1  0.00434488 -3.2893 1.041
LeftArm  28.1028 -30.2413 -91.3632
LeftForeArm  129.129 -63.503 -158.923
LeftHand  0.00356067 11.5365 -0.334497
HEad  -6.48391 -58.3552 22.1325
RightUpLeg  -16.9498 3.8384 -5.50782
RightLeg  11.3144 33.4769 4.24918
RightFoot  7.1176 -0.2703 4.72117
RightToes  -33.4045 -0.168029 -0.274918
18
root  2.51632 33.935 0.764383 4.9693 -28.5575 1.10706
LeftUpLeg  -3.46207 19.4293 2.57361
LeftLeg  17.4617 22.944 5.45939
LeftFoot  -7.48069 -0.215403 -3.29402
LeftToes  -7.17234 8.556e-007 1.17171e-007
Spine  1.30162 -7.57841 6.38314
Spine1  1.78963 -15.2087 12.3544
RightShoulder  0.0896976 2.1146 10.6143
RightArm  -31.9454 -9.16209 61.4573
RightForeArm  24.1858 19.4001 3.55578
RightHand  1.30564 -13.1972 -10.8756
LeftShoulder1  0.00241576 -3.27424 1.23929
LeftArm  28.7554 -31.3821 -92.5831
LeftForeArm  127.411 -62.6809 -159.694
LeftHand  -0.0371748 12.486 -0.709385
HEad  -5.87401 -58.1056 21.5947
RightUpLeg  -16.7884 3.77766 -5.59997
RightLeg  11.1452 33.3821 4.14427
RightFoot  7.27701 -0.282075 4.81076
RightToes  -33.5062 -0.168795 -0.275912
19
root  2.56001 33.939 0.705546 4.7346 -28.3012 1.24564
LeftUpLeg  -3.43892 19.4581 2.48702
LeftLeg  17.4179 22.6607 5.37819
LeftFoot  -7.39172 -0.207144 -3.20601
LeftToes  -7.36915 8.556e-007 1.17171e-007
Spine  1.34146 -7.5775 6.27027
Spine1  1.90795 -15.1785 12.1036
RightShoulder  0.0894993 2.40793 10.3885
RightArm  -31.5894 -8.63724 61.6769
RightForeArm  24.3062 19.3782 3.55142
RightHand  1.301 -13.1407 -10.8842
LeftShoulder1  -8.91157e-005 -3.02309 1.27367
LeftArm  29.4511 -32.5669 -93.6407
LeftForeArm  125.465 -61.783 -160.486
LeftHand  -0.082567 13.3954 -1.07249
HEad  -5.17732 -57.5516 20.8811
RightUpLeg  -16.6159 3.63415 -5.73988
RightLeg  10.9182 33.2813 4.00715
RightFoot  7.43387 -0.293961 4.89973
RightToes  -33.7329 -0.170453 -0.276809
20
root  2.60375 33.942 0.644011 4.53285 -27.9839 1.35188
LeftUpLeg  -3.45868 19.4047 2.4227
LeftLeg  17.4076 22.4007 5.31586
LeftFoot  -7.29107 -0.198843 -3.12018
LeftToes  -7.49775 8.556e-007 1.17171e-007
Spine  1.38438 -7.56927 6.17012
Spine1  2.01813 -15.1502 11.8907
RightShoulder  0.0893875 2.5531 10.258
RightArm  -31.441 -8.28144 61.8747
RightForeArm  24.4799 19.2686 3.52965
RightHand  1.30058 -13.0983 -10.9171
LeftShoulder1  -0.00166196 -2.88757 1.34801
LeftArm  30.1203 -33.6206 -94.7891
LeftForeArm  123.419 -61.0781 -161.077
LeftHand  -0.17038 13.974 -1.75927
HEad  -4.72928 -57.1292 20.3997
RightUpLeg  -16.5018 3.60539 -5.87636
RightLeg  10.7981 33.0087 3.91183
RightFoot  7.56203 -0.301342 4.93446
RightToes  -33.824 -0.171552 -0.277625
21
root  2.64752 33.9441 0.58296 4.33493 -27.7049 1.46771
LeftUpLeg  -3.48659 19.4239 2.34379
LeftLeg  17.3976 22.1161 5.24811
LeftFoot  -7.1654 -0.189242 -3.02179
LeftToes  -7.61812 8.556e-007 1.17171e-007
Spine  1.43441 -7.54123 6.0525
Spine1  2.14348 -15.0877 11.6453
RightShoulder  0.0893432 2.64597 10.2153
RightArm  -31.4325 -8.10539 62.0802
RightForeArm  24.5776 19.0329 3.48303
RightHand  1.32514 -13.2171 -11.0253
LeftShoulder1  -0.00291757 -2.81142 1.39426
LeftArm  30.8617 -34.5136 -95.8064
LeftForeArm  121.404 -60.3364 -161.668
LeftHand  -0.238076 14.7993 -2.20194
HEad  -4.286 -56.7727 19.9294
RightUpLeg  -16.411 3.63208 -6.03207
RightLeg  10.7035 32.7298 3.83068
RightFoot  7.67793 -0.307588 4.95847
RightToes  -33.9132 -0.172474 -0.278373
22
root  2.68855 33.9438 0.524056 4.15127 -27.4184 1.58781
LeftUpLeg  -3.54086 19.4047 2.25863
LeftLeg  17.4334 21.8675 5.20634
LeftFoot  -7.01642 -0.179182 -2.9221
LeftToes  -7.9259 8.556e-007 1.17171e-007
Spine  1.47212 -7.50583 5.91228
Spine1  2.24413 -15.0125 11.3558
RightShoulder  0.0893604 2.72368 10.2607
RightArm  -31.5101 -8.17069 62.2693
RightForeArm  24.7232 18.6415 3.40592
RightHand  1.32757 -13.2392 -11.0269
LeftShoulder1  -0.0039337 -2.8626 1.48073
LeftArm  31.5083 -35.1783 -96.5985
LeftForeArm  119.732 -59.5685 -162.248
LeftHand  -0.284881 15.2604 -2.49513
HEad  -3.76904 -56.4292 19.4522
RightUpLeg  -16.3461 3.62677 -6.18748
RightLeg  10.6575 32.4694 3.77852
RightFoot  7.78051 -0.312932 4.97643
RightToes  -34.0463 -0.173255 -0.279067
23
root  2.72694 33.9386 0.466332 3.98246 -27.133 1.71453
LeftUpLeg  -3.62535 19.3666 2.16876
LeftLeg  17.5064 21.6309 5.18127
LeftFoot  -6.79607 -0.166134 -2.79743
LeftToes  -8.12515 8.556e-007 1.17171e-007
Spine  1.5125 -7.49024 5.77314
Spine1  2.34825 -14.9772 11.0645
RightShoulder  0.089385 2.84971 10.3304
RightArm  -31.6424 -8.36265 62.4555
RightForeArm  25.0958 18.0908 3.298
RightHand  1.32808 -13.2425 -11.0284
LeftShoulder1  -0.00478808 -2.80534 1.60092
LeftArm  32.0814 -35.6461 -97.2827
LeftForeArm  118.47 -58.7821 -162.812
LeftHand  -0.37792 15.6429 -3.1193
HEad  -3.31158 -56.0743 19.0473
RightUpLeg  -16.329 3.58932 -6.34221
RightLeg  10.6997 32.2277 3.77612
RightFoot  7.84167 -0.315118 4.97232
RightToes  -34.1616 -0.173932 -0.279721
24
root  2.75793 33.9327 0.412506 3.82949 -26.8887 1.82337
LeftUpLeg  -3.72676 19.3675 2.09788
LeftLeg  17.6295 21.4061 5.17747
LeftFoot  -6.59822 -0.154864 -2.68608
LeftToes  -8.42581 8.556e-007 1.17171e-007
Spine  1.54651 -7.46233 5.65067
Spine1  2.43744 -14.9204 10.8129
RightShoulder  0.0894031 3.01661 10.4031
RightArm  -31.8161 -8.74086 62.5937
RightForeArm  25.5093 17.4786 3.17884
RightHand  1.33466 -13.2961 -11.0383
LeftShoulder1  -0.00555845 -2.81773 1.65618
LeftArm  32.5099 -35.9094 -97.6547
LeftForeArm  116.831 -57.929 -163.395
LeftHand  -0.407071 16.2729 -3.21527
HEad  -2.86564 -55.7438 18.6206
RightUpLeg  -16.3371 3.47707 -6.45802
RightLeg  10.8125 32.096 3.82288
RightFoot  7.86612 -0.316056 4.96656
RightToes  -34.2663 -0.174542 -0.280348
25
root  2.78615 33.925 0.362523 3.66857 -26.6644 1.93181
LeftUpLeg  -3.80485 19.3473 2.02184
LeftLeg  17.7542 21.2252 5.18354
LeftFoot  -6.48548 -0.148275 -2.61662
LeftToes  -8.55735 8.556e-007 1.17171e-007
Spine  1.57453 -7.44543 5.52263
Spine1  2.51271 -14.8878 10.554
RightShoulder  0.0894177 3.18243 10.4725
RightArm  -32.1829 -9.23293 62.7763
RightForeArm  26.1072 16.7684 3.0416
RightHand  1.33163 -13.3885 -10.9339
LeftShoulder1  -0.00632253 -2.76348 1.66389
LeftArm  32.876 -35.9323 -97.8085
LeftForeArm  115.179 -57.2871 -163.817
LeftHand  -0.468276 16.7698 -3.54468
HEad  -2.37405 -55.4394 18.1884
RightUpLeg  -16.3434 3.35156 -6.57478
RightLeg  10.9536 32.0213 3.89057
RightFoot  7.86422 -0.316191 4.95532
RightToes  -34.2989 -0.175122 -0.280963
26
root  2.81299 33.9161 0.317265 3.48913 -26.4683 2.04563
LeftUpLeg  -3.86039 19.2863 1.93767
LeftLeg  17.9021 21.0876 5.20772
LeftFoot  -6.491 -0.147509 -2.60088
LeftToes  -8.54256 8.556e-007 1.17171e-007
Spine  1.60844 -7.41692 5.38939
Spine1  2.59916 -14.8377 10.2923
RightShoulder  0.0896086 3.35411 10.5298
RightArm  -32.5931 -9.86914 62.9496
RightForeArm  26.5714 16.0794 2.9095
RightHand  1.33982 -13.4895 -10.9176
LeftShoulder1  -0.00715808 -2.81639 1.68721
LeftArm  33.0659 -35.8299 -97.6847
LeftForeArm  113.768 -56.4323 -164.351
LeftHand  -0.409842 17.4349 -3.04119
HEad  -1.95639 -55.113 17.8018
RightUpLeg  -16.3306 3.30424 -6.69743
RightLeg  11.0946 31.8719 3.94964
RightFoot  7.84871 -0.314455 4.92044
RightToes  -34.4207 -0.175708 -0.28158
27
root  2.8358 33.9079 0.275685 3.35124 -26.2265 2.11818
LeftUpLeg  -3.93788 19.1457 1.87989
LeftLeg  18.0686 20.9859 5.24684
LeftFoot  -6.55555 -0.146624 -2.61325
LeftToes  -8.48104 8.556e-007 1.17171e-007
Spine  1.64441 -7.40342 5.27841
Spine1  2.68586 -14.8208 10.0795
RightShoulder  0.0899487 3.49979 10.5816
RightArm  -32.9119 -10.5126 63.0782
RightForeArm  26.98 15.3595 2.77249
RightHand  1.35616 -13.5822 -10.9762
LeftShoulder1  -0.00805479 -2.90114 1.65855
LeftArm  33.1964 -35.7514 -97.5271
LeftForeArm  112.692 -55.2947 -165.02
LeftHand  -0.296752 18.3665 -2.20459
HEad  -1.48755 -54.9142 17.3993
RightUpLeg  -16.322 3.27069 -6.7922
RightLeg  11.2297 31.6768 3.99978
RightFoot  7.85009 -0.312582 4.8873
RightToes  -34.5157 -0.176338 -0.282213
28
root  2.85678 33.8996 0.237871 3.19324 -25.9299 2.19361
LeftUpLeg  -4.01152 19.1393 1.85526
LeftLeg  18.2564 20.7005 5.24919
LeftFoot  -6.55914 -0.149525 -2.57719
LeftToes  -8.57445 8.556e-007 1.17171e-007
Spine  1.65001 -7.40564 5.14498
Spine1  2.71196 -14.8347 9.83331
RightShoulder  0.0903741 3.65292 10.6264
RightArm  -33.5288 -11.2583 63.2599
RightForeArm  27.6972 14.5851 2.62611
RightHand  1.35513 -13.6665 -10.8976
LeftShoulder1  -0.00894572 -2.98427 1.59834
LeftArm  33.1469 -35.6011 -97.372
LeftForeArm  111.376 -54.4695 -165.483
LeftHand  -0.171596 19.2607 -1.38072
HEad  -0.598582 -54.8193 16.7777
RightUpLeg  -16.2479 3.20538 -6.89474
RightLeg  11.2898 31.4715 4.00824
RightFoot  7.83677 -0.309785 4.84208
RightToes  -34.6381 -0.177049 -0.282875
29
root  2.87864 33.8941 0.20577 3.05573 -25.6591 2.23464
LeftUpLeg  -4.06205 19.0103 1.83694
LeftLeg  18.4233 20.5588 5.27709
LeftFoot  -6.58417 -0.151083 -2.56862
LeftToes  -8.59623 8.556e-007 1.17171e-007
Spine  1.65389 -7.40063 5.04002
Spine1  2.72974 -14.8376 9.64869
RightShoulder  0.0908162 3.71382 10.612
RightArm  -33.8965 -11.9776 63.4249
RightForeArm  28.2623 13.9042 2.49829
RightHand  1.38602 -13.7698 -11.0661
LeftShoulder1  -0.0098237 -3.03099 1.58819
LeftArm  33.0211 -35.4332 -97.1355
LeftForeArm  111.136 -53.7211 -165.881
LeftHand  0.014667 19.625 -0.285045
HEad  0.320816 -54.6891 15.9738
RightUpLeg  -16.2059 3.02174 -6.94763
RightLeg  11.4449 31.3842 4.08007
RightFoot  7.8202 -0.308273 4.81753
RightToes  -34.7386 -0.177876 -0.283515
